# xmcd
#
# Track frame offsets: 
#        150
#        12817
#        20648
#        23908
#        36762
#        46674
#        53405
#        62267
#        75528
#        86176
#        94627
#        104054
#        115026
#        123899
#        129430
#        137547
#        147741
#        155793
#        168762
#        186263
#        199939
#        209737
#        228645
#        235651
#        245939
#        253874
#        265017
#        272478
#        277695
#        288900
#        299085
#        305650
#        314785
#        325191
#        332898
#        341002
#        351793
#        359520
#
# Disc length: 5015 seconds
#
# Revision: 0
# Processed by: cddbd v1.5.2PL0 Copyright (c) Steve Scherf et al.
# Submitted via: ExactAudioCopy v1.0b3
#
DISCID=45139526
DTITLE=Johnny Horton - The Singing Fisherman [Disc 8]
DYEAR=2014
DGENRE=Country
TTITLE0=None Of You But All Of Me [2014]
TTITLE1=Dark-Eyed Beauty From Cuba [2014]
TTITLE2=I Won't Get Dreamy Eyed (Incomplete)  [2014]
TTITLE3=All For The Love Of A Girl [2014]
TTITLE4=I Wish Heartaches Were Strangers [2014] 
TTITLE5=Love And Tell [2014]
TTITLE6=Honky-Tonk Jelly Roll Blues [2014]
TTITLE7=Honky-Tonk Jelly Roll Blues [2014]
TTITLE8=You, You, You [2014]
TTITLE9=All For The Love Of A Girl [2014]
TTITLE10=Because I'm A Jealous Man [2014]
TTITLE11=My Heart Stopped Trembled And Died [2014]
TTITLE12=You're The One For Me [2014]
TTITLE13=Broken Hearted Gypsy [2014]
TTITLE14=The Devil Made A Masterpiece [2014]
TTITLE15=The Train With The Rumba Beat [2014]
TTITLE16=Church By The Side Of The Road [2014]
TTITLE17=I'm The One That Breaks In Two [2014]
TTITLE18=Bob Sullivan Stomp [2014]
TTITLE19=Stomping At KWKH Studios [2014]
TTITLE20=I'm A Fishin' Man [2014]
TTITLE21=A Lifetime Ago [2014]
TTITLE22=Electricity [2014]
TTITLE23=My Heart Stopped, Trembled, And Died [2014]
TTITLE24=Someboy's Been Beatin' My Time [2014]
TTITLE25=Blow Your Whistle [2014]
TTITLE26=Confusion [2014]
TTITLE27=How You Gonna Make It [2014]
TTITLE28=I Got A Slow Leak [2014]
TTITLE29=I Got A Slow Leak [2014]
TTITLE30=Baby Darling [2014]
TTITLE31=Where Do You Think You Would Stand [2014]
TTITLE32=Why Did It Happen To Me [2014]
TTITLE33=Won't You Love Me, Love Me, Love Me [2014]
TTITLE34=Upon My Heart [2014]
TTITLE35=John Henry [2014]
TTITLE36=You Don't Move Me Baby Anymore [2014]
TTITLE37=What Will I Do Without You (Guitar) [2014]
EXTD=
EXTT0=
EXTT1=
EXTT2=
EXTT3=
EXTT4=
EXTT5=
EXTT6=
EXTT7=
EXTT8=
EXTT9=
EXTT10=
EXTT11=
EXTT12=
EXTT13=
EXTT14=
EXTT15=
EXTT16=
EXTT17=
EXTT18=
EXTT19=
EXTT20=
EXTT21=
EXTT22=
EXTT23=
EXTT24=
EXTT25=
EXTT26=
EXTT27=
EXTT28=
EXTT29=
EXTT30=
EXTT31=
EXTT32=
EXTT33=
EXTT34=
EXTT35=
EXTT36=
EXTT37=
PLAYORDER=
